<svg width="197" height="190" viewBox="0 0 197 190" fill="none" xmlns="http://www.w3.org/2000/svg">

<path d="M48.8178 47.9348H146.668M171.13 73.5652V96.975C171.13 101.169 167.728 104.569 163.53 104.569H143.818M98.2178 104.893H48.797C45.6491 104.894 43.0973 107.444 43.0973 110.589L43.1178 112.486M14.6178 73.5652H37.4178C43.7138 73.5652 48.8178 68.4652 48.8178 62.1739V39.3913C48.8178 33.1001 43.7138 28 37.4178 28H14.6178C8.32173 28 3.21777 33.1001 3.21777 39.3913V62.1739C3.21777 68.4652 8.32173 73.5652 14.6178 73.5652ZM159.018 73.5652H181.818C188.114 73.5652 193.218 68.4652 193.218 62.1739V39.3913C193.218 33.1001 188.114 28 181.818 28H159.018C152.722 28 147.618 33.1001 147.618 39.3913V62.1739C147.618 68.4652 152.722 73.5652 159.018 73.5652ZM109.618 126.725H132.418C138.714 126.725 143.818 121.625 143.818 115.333V103.942V92.5507C143.818 86.2595 138.714 81.1594 132.418 81.1594H109.618C103.322 81.1594 98.2178 86.2595 98.2178 92.5507V115.333C98.2178 121.625 103.322 126.725 109.618 126.725ZM31.7178 159H54.5178C60.8138 159 65.9178 153.9 65.9178 147.609V124.826C65.9178 118.535 60.8138 113.435 54.5178 113.435H31.7178C25.4217 113.435 20.3178 118.535 20.3178 124.826V147.609C20.3178 153.9 25.4217 159 31.7178 159Z" stroke="#FFC428" stroke-width="6" stroke-linecap="round"/>
</svg>
