<svg width="240" height="241" viewBox="0 0 240 241" fill="none" xmlns="http://www.w3.org/2000/svg">
<path d="M54 102.489V139.489M186 102.489V139.489M54 68.4885H121M54 173.489H121" stroke="#FFC428" stroke-width="14" stroke-linecap="round"/>
<path d="M202 32.4885H38C28.0589 32.4885 20 40.5474 20 50.4885V84.4885C20 94.4296 28.0589 102.489 38 102.489H202C211.941 102.489 220 94.4297 220 84.4885V50.4885C220 40.5474 211.941 32.4885 202 32.4885Z" stroke="#ED5226" stroke-width="14"/>
<path d="M202 139.489H38C28.0589 139.489 20 147.547 20 157.489V191.489C20 201.43 28.0589 209.489 38 209.489H202C211.941 209.489 220 201.43 220 191.489V157.489C220 147.547 211.941 139.489 202 139.489Z" stroke="#ED5226" stroke-width="14"/>
<circle cx="170" cy="68.4885" r="7" fill="#ED5226"/>
<circle cx="170" cy="173.489" r="7" fill="#ED5226"/>
</svg>
