<svg width="60" height="60" viewBox="0 0 60 60" fill="none" xmlns="http://www.w3.org/2000/svg">
<path d="M30.0002 54.2C16.6349 54.2 5.8002 43.3653 5.8002 30C5.8002 16.6348 16.6349 5.80005 30.0002 5.80005C43.3655 5.80005 54.2002 16.6348 54.2002 30C54.2002 43.3653 43.3655 54.2 30.0002 54.2ZM30.0002 8.94605C18.3724 8.94605 8.9462 18.3722 8.9462 30C8.9462 41.6278 18.3724 51.054 30.0002 51.054C41.628 51.054 51.0542 41.6278 51.0542 30C51.0542 18.3722 41.628 8.94605 30.0002 8.94605Z" fill="#ED5226" fill-opacity="0.1"/>
<path d="M30.0002 52.627C30.0002 53.4958 29.2951 54.2054 28.4282 54.149C23.2309 53.8108 18.2653 51.8026 14.2836 48.4019C9.90202 44.6597 6.99953 39.4769 6.09814 33.7858C5.19675 28.0946 6.35562 22.2686 9.36631 17.3556C12.1023 12.8909 16.2043 9.44653 21.0428 7.51882C21.8498 7.19728 22.7396 7.65427 23.0081 8.48049C23.2765 9.30672 22.8215 10.1886 22.0176 10.518C17.8906 12.2089 14.3932 15.1736 12.0487 18.9994C9.42941 23.2737 8.42119 28.3423 9.2054 33.2936C9.98961 38.2449 12.5148 42.7539 16.3267 46.0096C19.7386 48.9237 23.981 50.6625 28.4285 50.9953C29.2949 51.0602 30.0002 51.7583 30.0002 52.627Z" fill="#ED5226"/>
<path d="M30 60C13.4315 60 -2.06477e-06 46.5685 -1.33015e-06 30C-5.95529e-07 13.4315 13.4315 -2.00679e-06 30 -1.2928e-06C46.5685 -5.78805e-07 60 13.4315 60 30C60 46.5685 46.5685 60 30 60ZM30 3C15.0883 3 3 15.0883 3 30C3 44.9117 15.0883 57 30 57C44.9117 57 57 44.9117 57 30C57 15.0883 44.9117 3 30 3Z" fill="#ED5226" fill-opacity="0.1"/>
<path d="M30 58.5C30 59.3284 29.3279 60.0039 28.5005 59.9625C23.0934 59.692 17.8499 57.9622 13.3329 54.9441C8.39942 51.6476 4.55424 46.9623 2.28361 41.4805C0.0129836 35.9987 -0.581117 29.9667 0.576442 24.1473C1.734 18.3279 4.59122 12.9824 8.7868 8.78679C12.9824 4.59122 18.3279 1.734 24.1473 0.57644C29.9667 -0.581116 35.9987 0.012984 41.4805 2.28361C46.9623 4.55424 51.6476 8.39942 54.9441 13.3329C57.9622 17.8499 59.692 23.0934 59.9625 28.5005C60.0039 29.3279 59.3284 30 58.5 30C57.6716 30 57.0043 29.3279 56.9584 28.5007C56.6907 23.6873 55.1381 19.0232 52.4497 14.9996C49.4829 10.5595 45.2661 7.09882 40.3325 5.05525C35.3988 3.01169 29.97 2.477 24.7326 3.5188C19.4951 4.5606 14.6841 7.1321 10.9081 10.9081C7.1321 14.6841 4.5606 19.4951 3.5188 24.7326C2.477 29.97 3.01169 35.3988 5.05525 40.3324C7.09882 45.2661 10.5595 49.4829 14.9996 52.4497C19.0232 55.1381 23.6873 56.6907 28.5007 56.9584C29.3279 57.0043 30 57.6716 30 58.5Z" fill="#ED5226"/>
</svg>
