<svg width="60" height="60" viewBox="0 0 60 60" fill="none" xmlns="http://www.w3.org/2000/svg">
<path d="M30 60C13.4315 60 -2.06477e-06 46.5685 -1.33015e-06 30C-5.95529e-07 13.4315 13.4315 -2.00679e-06 30 -1.2928e-06C46.5685 -5.78805e-07 60 13.4315 60 30C60 46.5685 46.5685 60 30 60ZM30 3C15.0883 3 3 15.0883 3 30C3 44.9117 15.0883 57 30 57C44.9117 57 57 44.9117 57 30C57 15.0883 44.9117 3 30 3Z" fill="#FFC428" fill-opacity="0.1"/>
<path d="M30 58.5C30 59.3284 29.328 60.0039 28.5006 59.9625C24.6787 59.7713 20.9238 58.8502 17.4402 57.2443C13.502 55.4288 10.0042 52.781 7.18782 49.4834C4.37145 46.1859 2.30346 42.317 1.12634 38.1432C-0.0507751 33.9695 -0.309038 29.5901 0.369349 25.307C1.04774 21.0238 2.64665 16.9386 5.05591 13.3329C7.46518 9.72717 10.6275 6.68664 14.325 4.42079C18.0226 2.15495 22.1674 0.717653 26.4739 0.207945C30.2832 -0.242919 34.1389 0.0414734 37.8329 1.04062C38.6326 1.25692 39.063 2.10701 38.807 2.89489C38.551 3.68277 37.7056 4.10965 36.9047 3.8978C33.6243 3.03003 30.2051 2.78726 26.8265 3.18715C22.9506 3.64589 19.2203 4.93945 15.8925 6.97871C12.5648 9.01798 9.71866 11.7545 7.55032 14.9996C5.38198 18.2447 3.94296 21.9214 3.33242 25.7763C2.72187 29.6311 2.9543 33.5725 4.01371 37.3289C5.07311 41.0853 6.9343 44.5673 9.46904 47.5351C12.0038 50.5029 15.1518 52.8859 18.6962 54.5199C21.7859 55.9442 25.1127 56.7699 28.5007 56.9583C29.3279 57.0043 30 57.6716 30 58.5Z" fill="#FFC428"/>
</svg>
