<svg width="300" height="300" viewBox="0 0 300 300" fill="none" xmlns="http://www.w3.org/2000/svg">
<path d="M153.898 147.846C155.016 148.267 155.913 148.681 156.591 149.087C157.268 149.479 157.78 149.914 158.126 150.393C158.488 150.858 158.724 151.38 158.835 151.961C158.945 152.527 159 153.187 159 153.942C159 154.871 158.843 155.698 158.528 156.424C158.213 157.149 157.772 157.781 157.205 158.318C156.638 158.84 155.953 159.269 155.15 159.602C154.362 159.922 153.488 160.139 152.528 160.255V160.865C152.528 161.271 152.496 161.663 152.433 162.041C152.386 162.418 152.26 162.752 152.055 163.042C151.866 163.332 151.583 163.565 151.205 163.739C150.827 163.913 150.323 164 149.693 164C149 164 148.457 163.913 148.063 163.739C147.669 163.565 147.378 163.332 147.189 163.042C147 162.752 146.882 162.418 146.835 162.041C146.787 161.663 146.764 161.271 146.764 160.865V159.994C145.488 159.718 144.48 159.341 143.74 158.862C143.016 158.383 142.472 157.89 142.11 157.382C141.748 156.859 141.52 156.373 141.425 155.923C141.331 155.459 141.283 155.103 141.283 154.856V154.508C141.283 154.363 141.307 154.145 141.354 153.855C141.402 153.565 141.543 153.274 141.78 152.984C142.016 152.694 142.378 152.44 142.866 152.222C143.354 152.004 144.039 151.896 144.921 151.896C145.079 151.896 145.331 151.91 145.677 151.939C146.039 151.968 146.402 152.062 146.764 152.222C147.126 152.367 147.441 152.599 147.709 152.919C147.992 153.224 148.134 153.652 148.134 154.203C148.134 154.726 148.354 155.125 148.795 155.401C149.236 155.676 149.74 155.814 150.307 155.814C150.811 155.814 151.228 155.72 151.559 155.531C151.89 155.328 152.055 154.943 152.055 154.377C152.055 154.102 151.969 153.862 151.795 153.659C151.622 153.441 151.402 153.253 151.134 153.093C150.866 152.919 150.559 152.766 150.213 152.636C149.882 152.491 149.551 152.36 149.22 152.244L148.937 152.113C147.677 151.634 146.551 151.155 145.559 150.676C144.583 150.197 143.756 149.689 143.079 149.152C142.402 148.601 141.882 148.006 141.52 147.367C141.173 146.729 141 146.003 141 145.19V143.927C141 143.129 141.142 142.44 141.425 141.859C141.709 141.264 142.102 140.763 142.606 140.357C143.11 139.936 143.717 139.602 144.425 139.356C145.134 139.094 145.913 138.906 146.764 138.79V137.135C146.764 136.772 146.787 136.402 146.835 136.025C146.882 135.647 147 135.313 147.189 135.023C147.378 134.718 147.669 134.472 148.063 134.283C148.457 134.094 149 134 149.693 134C150.323 134 150.827 134.094 151.205 134.283C151.583 134.472 151.866 134.718 152.055 135.023C152.26 135.313 152.386 135.647 152.433 136.025C152.496 136.402 152.528 136.772 152.528 137.135V138.79C153.693 138.964 154.661 139.247 155.433 139.639C156.205 140.016 156.811 140.459 157.252 140.967C157.709 141.46 158.024 141.99 158.197 142.556C158.386 143.107 158.48 143.637 158.48 144.145C158.48 144.711 158.362 145.161 158.126 145.495C157.906 145.814 157.614 146.061 157.252 146.235C156.906 146.409 156.504 146.518 156.047 146.562C155.591 146.605 155.142 146.627 154.701 146.627C154.465 146.627 154.173 146.605 153.827 146.562C153.48 146.504 153.142 146.409 152.811 146.279C152.48 146.148 152.197 145.959 151.961 145.713C151.74 145.466 151.63 145.147 151.63 144.755C151.63 144.479 151.606 144.232 151.559 144.015C151.512 143.782 151.417 143.586 151.276 143.427C151.134 143.267 150.929 143.144 150.661 143.057C150.409 142.97 150.071 142.926 149.646 142.926C149.409 142.926 149.181 142.94 148.961 142.97C148.74 142.984 148.543 143.042 148.37 143.144C148.213 143.231 148.087 143.376 147.992 143.579C147.898 143.768 147.85 144.044 147.85 144.406C147.85 144.871 148.087 145.284 148.559 145.647C149.047 145.996 149.622 146.308 150.283 146.583C150.945 146.859 151.614 147.099 152.291 147.302C152.969 147.505 153.504 147.687 153.898 147.846Z" fill="#ED5226"/>
<path d="M150 271C83.1735 271 29 216.826 29 150C29 83.1735 83.1735 29 150 29C216.826 29 271 83.1735 271 150C271 216.826 216.826 271 150 271ZM150 44.73C91.861 44.73 44.73 91.861 44.73 150C44.73 208.139 91.861 255.27 150 255.27C208.139 255.27 255.27 208.139 255.27 150C255.27 91.861 208.139 44.73 150 44.73Z" fill="#FFC428" fill-opacity="0.1"/>
<path d="M150 263.135C150 267.479 146.475 271.027 142.14 270.745C122.572 269.471 103.564 263.456 86.7777 253.169C67.7509 241.51 52.3191 224.816 42.1882 204.933C32.0574 185.05 27.6222 162.753 29.373 140.506C30.9177 120.879 37.2244 101.966 47.6958 85.3868C50.0153 81.7143 54.9577 80.9477 58.4719 83.5009C61.986 86.0541 62.7373 90.9588 60.4535 94.6537C51.6676 108.869 46.3715 125.006 45.0545 141.741C43.5313 161.095 47.3899 180.493 56.2037 197.792C65.0176 215.09 78.4433 229.614 94.9966 239.757C109.309 248.528 125.478 253.729 142.142 254.976C146.474 255.301 150 258.791 150 263.135Z" fill="#FFC428"/>
<path d="M150 242C99.1898 242 58 200.81 58 150C58 99.1898 99.1898 58 150 58C200.81 58 242 99.1898 242 150C242 200.81 200.81 242 150 242ZM150 72.72C107.319 72.72 72.72 107.319 72.72 150C72.72 192.681 107.319 227.28 150 227.28C192.681 227.28 227.28 192.681 227.28 150C227.28 107.319 192.681 72.72 150 72.72Z" fill="#FFC428" fill-opacity="0.1"/>
<path d="M150 234.64C150 238.705 146.699 242.031 142.648 241.706C128.255 240.552 114.3 236.023 101.93 228.443C87.4635 219.578 75.7302 206.885 68.0274 191.767C60.3246 176.65 56.9524 159.696 58.2836 142.782C59.4218 128.319 63.9607 114.367 71.4868 102.045C73.6056 98.576 78.2363 97.8606 81.5248 100.25C84.8133 102.639 85.5085 107.227 83.4428 110.727C77.4831 120.827 73.8834 132.181 72.9582 143.937C71.84 158.145 74.6727 172.386 81.143 185.084C87.6134 197.783 97.4693 208.445 109.621 215.892C119.675 222.053 130.977 225.815 142.651 226.93C146.697 227.316 150 230.575 150 234.64Z" fill="#FFC428"/>
<path d="M150 300C67.1573 300 -1.01779e-05 232.843 -6.55671e-06 150C-2.93554e-06 67.1573 67.1573 -1.01779e-05 150 -6.55671e-06C232.843 -2.93554e-06 300 67.1573 300 150C300 232.843 232.843 300 150 300ZM150 15C75.4416 15 15 75.4415 15 150C15 224.558 75.4415 285 150 285C224.558 285 285 224.558 285 150C285 75.4416 224.558 15 150 15Z" fill="#FFC428" fill-opacity="0.1"/>
<path d="M150 292.5C150 296.642 146.64 300.02 142.503 299.813C123.393 298.856 104.619 294.251 87.201 286.221C67.5099 277.144 50.021 263.905 35.9391 247.417C21.8572 230.929 11.5173 211.585 5.63171 190.716C-0.253883 169.847 -1.5452 147.951 1.84674 126.535C5.23867 105.119 13.2332 84.693 25.2796 66.6645C37.3259 48.6359 53.1376 33.4332 71.6252 22.104C90.1128 10.7747 110.837 3.58826 132.369 1.03972C151.416 -1.21459 170.695 0.207367 189.164 5.20308C193.163 6.28459 195.315 10.535 194.035 14.4744C192.755 18.4138 188.528 20.5483 184.524 19.489C168.121 15.1502 151.026 13.9363 134.132 15.9358C114.753 18.2294 96.1016 24.6973 79.4627 34.8936C62.8238 45.0899 48.5933 58.7723 37.7516 74.998C26.9099 91.2237 19.7148 109.607 16.6621 128.881C13.6093 148.156 14.7715 167.863 20.0685 186.644C25.3656 205.426 34.6715 222.837 47.3452 237.675C60.0188 252.514 75.7589 264.429 93.4809 272.599C108.929 279.721 125.564 283.85 142.504 284.792C146.639 285.022 150 288.358 150 292.5Z" fill="#FFC428"/>
<path d="M150 190C127.909 190 110 172.091 110 150C110 127.909 127.909 110 150 110C172.091 110 190 127.909 190 150C190 172.091 172.091 190 150 190ZM150 121.2C134.094 121.2 121.2 134.094 121.2 150C121.2 165.906 134.094 178.8 150 178.8C165.906 178.8 178.8 165.906 178.8 150C178.8 134.094 165.906 121.2 150 121.2Z" fill="#FFC428" fill-opacity="0.1"/>
<path d="M150 184.4C150 187.493 147.481 190.04 144.418 189.609C139.009 188.846 133.792 186.981 129.1 184.106C122.81 180.251 117.709 174.732 114.36 168.16C111.011 161.587 109.545 154.216 110.123 146.862C110.555 141.376 112.112 136.059 114.675 131.234C116.126 128.503 119.668 127.962 122.17 129.78C124.672 131.598 125.169 135.087 123.868 137.893C122.437 140.983 121.558 144.316 121.289 147.74C120.872 153.035 121.928 158.342 124.339 163.075C126.75 167.807 130.423 171.781 134.952 174.556C137.881 176.351 141.094 177.599 144.435 178.257C147.47 178.855 150 181.307 150 184.4Z" fill="#FFC428"/>
<path d="M150 215C114.101 215 85 185.899 85 150C85 114.101 114.101 85 150 85C185.899 85 215 114.101 215 150C215 185.899 185.899 215 150 215ZM150 98C121.281 98 98 121.281 98 150C98 178.719 121.281 202 150 202C178.719 202 202 178.719 202 150C202 121.281 178.719 98 150 98Z" fill="#FFC428" fill-opacity="0.1"/>
<path d="M150 208.5C150 212.09 147.083 215.034 143.511 214.675C133.801 213.701 124.405 210.549 116.038 205.422C105.817 199.158 97.5268 190.19 92.0846 179.509C86.6424 168.828 84.2598 156.851 85.2004 144.9C85.9704 135.116 88.9432 125.663 93.8623 117.235C95.6718 114.134 99.7683 113.505 102.672 115.615C105.577 117.725 106.18 121.774 104.449 124.919C100.896 131.371 98.7421 138.528 98.1603 145.92C97.4079 155.481 99.3139 165.063 103.668 173.608C108.021 182.152 114.653 189.327 122.83 194.337C129.153 198.212 136.208 200.676 143.517 201.594C147.079 202.042 150 204.91 150 208.5Z" fill="#FFC428"/>
</svg>
