<svg width="60" height="60" viewBox="0 0 60 60" fill="none" xmlns="http://www.w3.org/2000/svg">
<path d="M30.0002 54.1999C16.6349 54.1999 5.8002 43.3652 5.8002 29.9999C5.8002 16.6346 16.6349 5.79993 30.0002 5.79993C43.3655 5.79993 54.2002 16.6346 54.2002 29.9999C54.2002 43.3652 43.3655 54.1999 30.0002 54.1999ZM30.0002 8.94593C18.3724 8.94593 8.9462 18.3721 8.9462 29.9999C8.9462 41.6277 18.3724 51.0539 30.0002 51.0539C41.628 51.0539 51.0542 41.6277 51.0542 29.9999C51.0542 18.3721 41.628 8.94593 30.0002 8.94593Z" fill="#ED5226" fill-opacity="0.1"/>
<path d="M30.0002 52.6269C30.0002 53.4957 29.2952 54.2052 28.4282 54.1488C24.5147 53.8941 20.7131 52.6912 17.3557 50.6338C13.5504 48.3019 10.464 44.9631 8.43784 40.9865C6.41167 37.0099 5.52463 32.5505 5.8748 28.1012C6.18373 24.1758 7.44508 20.3932 9.53936 17.0773C10.0033 16.3428 10.9917 16.1895 11.6946 16.7001C12.3974 17.2107 12.5477 18.1917 12.0909 18.9307C10.3337 21.7736 9.2745 25.0012 9.0111 28.348C8.70645 32.2189 9.47818 36.0986 11.2409 39.5582C13.0037 43.0179 15.6889 45.9226 18.9995 47.9514C21.862 49.7056 25.0957 50.7457 28.4286 50.9952C29.2949 51.06 30.0002 51.7582 30.0002 52.6269Z" fill="#ED5226"/>
<path d="M29.9994 48.4001C19.8374 48.4001 11.5994 40.1621 11.5994 30.0001C11.5994 19.8381 19.8374 11.6001 29.9994 11.6001C40.1615 11.6001 48.3994 19.8381 48.3994 30.0001C48.3994 40.1621 40.1615 48.4001 29.9994 48.4001ZM29.9994 14.5441C21.4633 14.5441 14.5434 21.464 14.5434 30.0001C14.5434 38.5362 21.4633 45.4561 29.9994 45.4561C38.5355 45.4561 45.4554 38.5362 45.4554 30.0001C45.4554 21.464 38.5355 14.5441 29.9994 14.5441Z" fill="#ED5226" fill-opacity="0.1"/>
<path d="M29.9994 46.9281C29.9994 47.7411 29.3393 48.4062 28.5289 48.3413C25.6505 48.1105 22.8593 47.2047 20.3854 45.6887C17.4921 43.9156 15.1454 41.377 13.6049 38.3535C12.0643 35.33 11.3899 31.9394 11.6561 28.5565C11.8838 25.6639 12.7916 22.8734 14.2968 20.4091C14.7205 19.7153 15.6467 19.5722 16.3044 20.0501C16.9621 20.5279 17.1011 21.4454 16.688 22.1456C15.496 24.1656 14.7761 26.4364 14.5911 28.7874C14.3674 31.6291 14.9339 34.4772 16.228 37.017C17.5221 39.5567 19.4933 41.6892 21.9237 43.1785C23.9345 44.4107 26.1948 45.163 28.5296 45.3861C29.3389 45.4634 29.9994 46.1151 29.9994 46.9281Z" fill="#ED5226"/>
<path d="M30 60C13.4315 60 -2.03558e-06 46.5685 -1.31134e-06 30C-5.87108e-07 13.4315 13.4315 -2.03558e-06 30 -1.31134e-06C46.5685 -5.87108e-07 60 13.4315 60 30C60 46.5685 46.5685 60 30 60ZM30 3C15.0883 3 3 15.0883 3 30C3 44.9117 15.0883 57 30 57C44.9117 57 57 44.9117 57 30C57 15.0883 44.9117 3 30 3Z" fill="#ED5226" fill-opacity="0.1"/>
<path d="M30 58.5C30 59.3284 29.328 60.0039 28.5006 59.9625C24.6787 59.7713 20.9238 58.8502 17.4402 57.2443C13.502 55.4287 10.0042 52.781 7.18782 49.4834C4.37145 46.1859 2.30346 42.317 1.12634 38.1432C-0.0507766 33.9695 -0.309039 29.5901 0.369349 25.307C1.04774 21.0238 2.64665 16.9386 5.05591 13.3329C7.46518 9.72717 10.6275 6.68664 14.325 4.42079C18.0226 2.15495 22.1674 0.717653 26.4739 0.207945C30.2832 -0.242919 34.1389 0.0414734 37.8329 1.04062C38.6326 1.25692 39.063 2.10701 38.807 2.89489V2.89489C38.551 3.68277 37.7056 4.10965 36.9047 3.8978C33.6243 3.03003 30.2051 2.78726 26.8265 3.18715C22.9506 3.64589 19.2203 4.93945 15.8925 6.97871C12.5648 9.01798 9.71866 11.7545 7.55032 14.9996C5.38198 18.2447 3.94296 21.9214 3.33241 25.7763C2.72186 29.6311 2.9543 33.5725 4.01371 37.3289C5.07311 41.0853 6.9343 44.5673 9.46904 47.5351C12.0038 50.5029 15.1518 52.8859 18.6962 54.5199C21.7859 55.9442 25.1127 56.7699 28.5007 56.9583C29.3279 57.0043 30 57.6716 30 58.5V58.5Z" fill="#ED5226"/>
<path d="M30 37.9999C25.5817 37.9999 22 34.4182 22 29.9999C22 25.5816 25.5817 21.9999 30 21.9999C34.4183 21.9999 38 25.5816 38 29.9999C38 34.4182 34.4183 37.9999 30 37.9999ZM30 24.2399C26.8188 24.2399 24.24 26.8187 24.24 29.9999C24.24 33.181 26.8188 35.7599 30 35.7599C33.1812 35.7599 35.76 33.181 35.76 29.9999C35.76 26.8187 33.1812 24.2399 30 24.2399Z" fill="#ED5226" fill-opacity="0.1"/>
<path d="M30 36.8799C30 37.4984 29.4961 38.0079 28.8836 37.9216C27.8017 37.7691 26.7584 37.396 25.82 36.821C24.562 36.0501 23.5418 34.9464 22.8719 33.6318C22.2021 32.3172 21.9089 30.843 22.0247 29.3722C22.111 28.2751 22.4224 27.2117 22.935 26.2468C23.2252 25.7005 23.9335 25.5923 24.434 25.9559C24.9344 26.3195 25.0337 27.0172 24.7737 27.5785C24.4874 28.1964 24.3117 28.8631 24.2578 29.548C24.1744 30.607 24.3855 31.6684 24.8678 32.6149C25.3501 33.5614 26.0847 34.356 26.9904 34.9111C27.5762 35.27 28.2188 35.5197 28.887 35.6513C29.4939 35.7709 30 36.2613 30 36.8799Z" fill="#ED5226"/>
<path d="M30 43.0001C22.8203 43.0001 17 37.1798 17 30.0001C17 22.8204 22.8203 17.0001 30 17.0001C37.1797 17.0001 43 22.8204 43 30.0001C43 37.1798 37.1797 43.0001 30 43.0001ZM30 19.6001C24.2562 19.6001 19.6 24.2564 19.6 30.0001C19.6 35.7439 24.2562 40.4001 30 40.4001C35.7438 40.4001 40.4 35.7439 40.4 30.0001C40.4 24.2564 35.7438 19.6001 30 19.6001Z" fill="#ED5226" fill-opacity="0.1"/>
<path d="M30 41.7001C30 42.4181 29.4165 43.0069 28.7021 42.9352C26.7602 42.7403 24.8811 42.11 23.2075 41.0844C21.1633 39.8318 19.5054 38.0382 18.4169 35.902C17.3285 33.7658 16.852 31.3703 17.0401 28.9802C17.1941 27.0234 17.7886 25.1327 18.7725 23.4471C19.1344 22.827 19.9537 22.701 20.5345 23.123C21.1154 23.545 21.236 24.3549 20.8897 24.9839C20.1792 26.2743 19.7484 27.7057 19.6321 29.1841C19.4816 31.0962 19.8628 33.0127 20.7335 34.7216C21.6043 36.4306 22.9307 37.8654 24.566 38.8676C25.8305 39.6425 27.2417 40.1353 28.7034 40.319C29.4157 40.4085 30 40.9822 30 41.7001Z" fill="#ED5226"/>
</svg>
