<svg width="66" height="66" viewBox="0 0 66 66" fill="none" xmlns="http://www.w3.org/2000/svg">
<circle cx="33" cy="33" r="31" stroke="#ED5226" stroke-width="4"/>
<path d="M36.8976 31.8462C38.0157 32.2671 38.9134 32.6807 39.5906 33.0871C40.2677 33.479 40.7795 33.9144 41.126 34.3933C41.4882 34.8578 41.7244 35.3803 41.8346 35.9608C41.9449 36.5268 42 37.1872 42 37.9419C42 38.8708 41.8425 39.6981 41.5276 40.4238C41.2126 41.1495 40.7717 41.7808 40.2047 42.3179C39.6378 42.8403 38.9528 43.2685 38.1496 43.6023C37.3622 43.9216 36.4882 44.1393 35.5276 44.2554V44.865C35.5276 45.2714 35.4961 45.6633 35.4331 46.0406C35.3858 46.418 35.2598 46.7518 35.0551 47.0421C34.8661 47.3324 34.5827 47.5646 34.2047 47.7388C33.8268 47.9129 33.3228 48 32.6929 48C32 48 31.4567 47.9129 31.063 47.7388C30.6693 47.5646 30.378 47.3324 30.189 47.0421C30 46.7518 29.8819 46.418 29.8346 46.0406C29.7874 45.6633 29.7638 45.2714 29.7638 44.865V43.9942C28.4882 43.7184 27.4803 43.3411 26.7402 42.8621C26.0157 42.3832 25.4724 41.8897 25.1102 41.3817C24.748 40.8592 24.5197 40.373 24.4252 39.9231C24.3307 39.4586 24.2835 39.103 24.2835 38.8563V38.508C24.2835 38.3628 24.3071 38.1451 24.3543 37.8549C24.4016 37.5646 24.5433 37.2743 24.7795 36.984C25.0157 36.6938 25.378 36.4398 25.8661 36.2221C26.3543 36.0044 27.0394 35.8955 27.9213 35.8955C28.0787 35.8955 28.3307 35.91 28.6772 35.939C29.0394 35.9681 29.4016 36.0624 29.7638 36.2221C30.126 36.3672 30.4409 36.5994 30.7087 36.9187C30.9921 37.2235 31.1339 37.6517 31.1339 38.2032C31.1339 38.7257 31.3543 39.1248 31.7953 39.4006C32.2362 39.6763 32.7402 39.8142 33.3071 39.8142C33.811 39.8142 34.2283 39.7199 34.5591 39.5312C34.8898 39.328 35.0551 38.9434 35.0551 38.3774C35.0551 38.1016 34.9685 37.8621 34.7953 37.6589C34.622 37.4412 34.4016 37.2525 34.1339 37.0929C33.8661 36.9187 33.5591 36.7663 33.2126 36.6357C32.8819 36.4906 32.5512 36.3599 32.2205 36.2438L31.937 36.1132C30.6772 35.6343 29.5512 35.1553 28.5591 34.6763C27.5827 34.1974 26.7559 33.6894 26.0787 33.1524C25.4016 32.6009 24.8819 32.0058 24.5197 31.3672C24.1732 30.7286 24 30.0029 24 29.1901V27.9274C24 27.1292 24.1417 26.4398 24.4252 25.8592C24.7087 25.2642 25.1024 24.7634 25.6063 24.357C26.1102 23.9361 26.7165 23.6023 27.4252 23.3556C28.1339 23.0943 28.9134 22.9057 29.7638 22.7896V21.135C29.7638 20.7721 29.7874 20.402 29.8346 20.0247C29.8819 19.6473 30 19.3135 30.189 19.0232C30.378 18.7184 30.6693 18.4717 31.063 18.283C31.4567 18.0943 32 18 32.6929 18C33.3228 18 33.8268 18.0943 34.2047 18.283C34.5827 18.4717 34.8661 18.7184 35.0551 19.0232C35.2598 19.3135 35.3858 19.6473 35.4331 20.0247C35.4961 20.402 35.5276 20.7721 35.5276 21.135V22.7896C36.6929 22.9637 37.6614 23.2467 38.4331 23.6386C39.2047 24.016 39.811 24.4586 40.252 24.9666C40.7087 25.4601 41.0236 25.9898 41.1968 26.5559C41.3858 27.1074 41.4803 27.6372 41.4803 28.1451C41.4803 28.7112 41.3622 29.1611 41.126 29.4949C40.9055 29.8142 40.6142 30.061 40.252 30.2351C39.9055 30.4093 39.5039 30.5181 39.0472 30.5617C38.5906 30.6052 38.1417 30.627 37.7008 30.627C37.4646 30.627 37.1732 30.6052 36.8268 30.5617C36.4803 30.5036 36.1417 30.4093 35.811 30.2787C35.4803 30.148 35.1969 29.9594 34.9606 29.7126C34.7402 29.4659 34.6299 29.1466 34.6299 28.7547C34.6299 28.479 34.6063 28.2322 34.5591 28.0145C34.5118 27.7823 34.4173 27.5864 34.2756 27.4267C34.1339 27.2671 33.9291 27.1437 33.6614 27.0566C33.4094 26.9695 33.0709 26.926 32.6457 26.926C32.4094 26.926 32.1811 26.9405 31.9606 26.9695C31.7402 26.984 31.5433 27.0421 31.3701 27.1437C31.2126 27.2308 31.0866 27.3759 30.9921 27.5791C30.8976 27.7678 30.8504 28.0435 30.8504 28.4064C30.8504 28.8708 31.0866 29.2845 31.5591 29.6473C32.0472 29.9956 32.622 30.3077 33.2835 30.5835C33.9449 30.8592 34.6142 31.0987 35.2913 31.3019C35.9685 31.5051 36.5039 31.6865 36.8976 31.8462Z" fill="#ED5226"/>
</svg>
