<svg width="473" height="328" viewBox="0 0 473 328" fill="none" xmlns="http://www.w3.org/2000/svg">
<rect x="41.3379" y="213.764" width="7.11368" height="7.11368" rx="2" fill="#FFC428"/>
<rect x="149.623" y="213.764" width="7.11368" height="7.11368" rx="2" fill="#FFC428"/>
<rect x="149.623" y="269.883" width="7.11368" height="7.11368" rx="2" fill="#FFC428"/>
<rect x="41.3379" y="269.883" width="7.11368" height="7.11368" rx="2" fill="#FFC428"/>
<rect x="44.8945" y="217.321" width="108.286" height="56.119" stroke="#FFC428" stroke-width="2"/>
<path d="M44.8945 217.321L153.18 273.44" stroke="#FFC428" stroke-width="2" stroke-linecap="round" stroke-linejoin="round"/>
<path d="M153.18 217.321L44.8937 273.44" stroke="#FFC428" stroke-width="2" stroke-linecap="round" stroke-linejoin="round"/>
<path d="M213.418 177L213.929 313.335" stroke="#ED5226" stroke-width="2" stroke-linecap="round" stroke-linejoin="round"/>
<path d="M19.3828 177V313.335" stroke="#ED5226" stroke-width="2" stroke-linecap="round" stroke-linejoin="round"/>
<path d="M1 195.382H231.799" stroke="#ED5226" stroke-width="2" stroke-linecap="round" stroke-linejoin="round"/>
<path d="M1 294.953H231.799" stroke="#ED5226" stroke-width="2" stroke-linecap="round" stroke-linejoin="round"/>
<path d="M51.9008 125.549C53.9716 122.962 57.7475 122.544 60.3345 124.615L74.0868 135.624C76.6737 137.694 77.0921 141.47 75.0213 144.057L71.671 148.242C69.6002 150.829 65.8243 151.248 63.2374 149.177L49.485 138.168C46.8981 136.097 46.4797 132.321 48.5505 129.735L51.9008 125.549Z" stroke="#ED5226" stroke-width="2"/>
<path d="M99.1328 128.966L105.247 82.664C105.284 82.3822 105.038 82.1857 104.772 82.2837L82.8512 90.3347L60.9309 98.3858C60.6582 98.4859 60.5371 98.8289 60.7002 99.0392L65.7797 105.586C65.8051 105.619 65.8276 105.654 65.8466 105.692C67.5748 109.108 67.2853 112.986 65.0931 115.724L59.1613 123.135C59.0154 123.317 59.0263 123.568 59.1858 123.696L74.8187 136.21C74.9782 136.338 75.2258 136.293 75.3718 136.111L81.3035 128.701C83.4957 125.962 87.2164 124.831 90.9278 125.769C90.9685 125.78 91.008 125.794 91.0454 125.811L98.5458 129.334M105.056 82.331L86.701 105.26M80.273 113.29L79.6932 108.742C79.6066 106.758 80.3541 105.824 82.3095 105.474L84.6559 105.054C86.6113 104.704 87.428 105.358 87.5146 107.343L87.6185 109.724C87.7051 111.709 86.9576 112.642 85.0022 112.992L80.273 113.29ZM80.273 113.29C79.2797 114.976 78.8771 114.653 80.273 113.29Z" stroke="#ED5226" stroke-width="2" stroke-linecap="round" stroke-linejoin="round"/>
<rect x="290" y="190" width="181.78" height="47.9981" rx="23.999" stroke="#ED5226" stroke-width="2"/>
<path d="M337.998 190V237.998" stroke="#ED5226" stroke-width="2"/>
<path d="M310.55 224.944C307.883 226.454 304.579 224.527 304.579 221.463L304.579 206.024C304.579 202.96 307.883 201.034 310.55 202.543L324.188 210.263C326.894 211.794 326.894 215.693 324.188 217.225L310.55 224.944Z" stroke="#ED5226" stroke-width="2"/>
<path d="M352.806 219.289H357.66C358.989 219.289 360.184 218.476 360.672 217.24V217.24C361.983 213.916 366.92 214.855 366.92 218.428V219.251C366.92 222.788 371.655 223.966 373.312 220.841L380.557 207.184C383.28 202.05 390.637 202.055 393.354 207.192L400.049 219.856C402.023 223.588 407.582 222.81 408.456 218.68L408.743 217.321C409.579 213.368 415.031 212.891 416.54 216.64V216.64C418.083 220.472 423.687 219.863 424.37 215.789L424.893 212.668C425.682 207.967 431.987 206.951 434.212 211.166L439.55 221.278C441.608 225.178 447.421 224.345 448.302 220.024V220.024C448.747 217.837 450.671 216.266 452.902 216.266H456.972" stroke="#ED5226" stroke-width="2" stroke-linecap="round" stroke-linejoin="round"/>
<rect x="274" y="277" width="9.19112" height="9.19112" rx="2" fill="#828282"/>
<rect x="274" y="317.849" width="9.19112" height="9.19112" rx="2" fill="#828282"/>
<rect x="314.849" y="277" width="9.19112" height="9.19112" rx="2" fill="#828282"/>
<rect x="314.849" y="317.849" width="9.19112" height="9.19112" rx="2" fill="#828282"/>
<rect x="278.596" y="281.596" width="40.8494" height="40.8494" stroke="#828282" stroke-width="2"/>
<path d="M298.775 311.211C298.455 311.211 298.185 311.103 297.967 310.888C297.748 310.672 297.639 310.406 297.639 310.089V294.361H299.912V310.089C299.912 310.406 299.802 310.672 299.584 310.888C299.365 311.103 299.096 311.211 298.775 311.211ZM292.92 296.432C292.614 296.432 292.359 296.339 292.155 296.152C291.966 295.95 291.871 295.699 291.871 295.396C291.871 295.094 291.966 294.85 292.155 294.663C292.359 294.462 292.614 294.361 292.92 294.361H304.609C304.915 294.361 305.163 294.462 305.352 294.663C305.556 294.85 305.658 295.094 305.658 295.396C305.658 295.699 305.556 295.95 305.352 296.152C305.163 296.339 304.915 296.432 304.609 296.432H292.92Z" fill="#828282"/>
<rect x="185.68" y="1" width="127.654" height="127.654" rx="24" stroke="#ED5226" stroke-width="2"/>
<rect x="153" y="33.6794" width="127.654" height="127.654" rx="24" stroke="#ED5226" stroke-width="2"/>
<line x1="219.338" y1="54.1465" x2="263.847" y2="54.1465" stroke="#2C4741" stroke-width="4" stroke-linecap="round"/>
<line x1="219.338" y1="111.336" x2="263.847" y2="111.336" stroke="#2C4741" stroke-width="4" stroke-linecap="round"/>
<line x1="219.338" y1="65.3804" x2="250.06" y2="65.3804" stroke="#2C4741" stroke-width="4" stroke-linecap="round"/>
<line x1="219.338" y1="122.569" x2="250.06" y2="122.569" stroke="#2C4741" stroke-width="4" stroke-linecap="round"/>
<rect x="168.318" y="48.998" width="40.8494" height="40.8494" rx="8" stroke="#828282" stroke-width="2"/>
<circle cx="198.289" cy="59.355" r="5" fill="#828282"/>
<path d="M168.318 80.6564L184.913 71.21L198.445 89.8475" stroke="#828282" stroke-width="2" stroke-linecap="round" stroke-linejoin="round"/>
<path d="M191.807 80.6565L197.934 75.5503L208.657 84.7414" stroke="#828282" stroke-width="2" stroke-linecap="round" stroke-linejoin="round"/>
<rect x="168.318" y="105.166" width="40.8494" height="40.8494" rx="8" stroke="#828282" stroke-width="2"/>
<circle cx="198.289" cy="115.523" r="5" fill="#828282"/>
<path d="M168.318 136.824L184.913 127.378L198.445 146.015" stroke="#828282" stroke-width="2" stroke-linecap="round" stroke-linejoin="round"/>
<path d="M191.807 136.824L197.934 131.718L208.657 140.909" stroke="#828282" stroke-width="2" stroke-linecap="round" stroke-linejoin="round"/>
</svg>
