<svg width="82" height="25" viewBox="0 0 82 25" fill="none" xmlns="http://www.w3.org/2000/svg">
<path d="M42.1027 24.2651C40.7681 24.2651 39.496 24.0629 38.2864 23.6584C37.0769 23.254 36.0238 22.6878 35.1271 21.9599C34.2304 21.2319 33.5735 20.3928 33.1564 19.4424C32.9479 19.0177 32.9479 18.6234 33.1564 18.2595C33.3858 17.8955 33.7612 17.663 34.2825 17.5618C34.6579 17.481 35.0228 17.5416 35.3773 17.7438C35.7527 17.9258 36.0342 18.2089 36.2219 18.5931C36.4722 19.0986 36.8788 19.5637 37.4419 19.9884C38.0258 20.413 38.7244 20.7567 39.5377 21.0196C40.351 21.2825 41.206 21.4139 42.1027 21.4139C43.1037 21.4139 44.0213 21.2623 44.8554 20.959C45.7104 20.6556 46.3986 20.2209 46.9199 19.6547C47.4413 19.0683 47.702 18.3505 47.702 17.5012C47.702 16.4295 47.264 15.469 46.3882 14.6197C45.5332 13.7704 44.1151 13.2447 42.134 13.0425C39.5481 12.7998 37.5149 12.0618 36.0342 10.8283C34.5536 9.59481 33.8133 8.06814 33.8133 6.24825C33.8133 4.91368 34.1991 3.78131 34.9707 2.85115C35.7423 1.92098 36.785 1.21325 38.0988 0.727952C39.4334 0.242651 40.914 0 42.5406 0C43.8127 0 44.918 0.171877 45.8564 0.515632C46.8157 0.859387 47.6498 1.33458 48.3589 1.94121C49.0679 2.54783 49.6831 3.26567 50.2044 4.09473C50.4964 4.53959 50.6111 4.96423 50.5485 5.36865C50.5068 5.75284 50.3087 6.05616 49.9542 6.27859C49.5579 6.52124 49.1304 6.57179 48.6717 6.43024C48.2129 6.2887 47.8688 6.02583 47.6394 5.64163C47.3057 5.05522 46.8991 4.55981 46.4194 4.15539C45.9398 3.75098 45.3768 3.43755 44.7303 3.21512C44.0838 2.97247 43.3226 2.85115 42.4468 2.85115C40.9036 2.83092 39.6107 3.11402 38.568 3.70042C37.5253 4.26661 37.0039 5.14622 37.0039 6.33925C37.0039 6.94588 37.1603 7.53228 37.4731 8.09847C37.8068 8.64443 38.4011 9.11962 39.2562 9.52404C40.132 9.92846 41.3832 10.2116 43.0098 10.3733C45.4914 10.616 47.4204 11.354 48.7968 12.5875C50.194 13.8008 50.8926 15.4083 50.8926 17.4102C50.8926 18.5628 50.6423 19.5637 50.1419 20.413C49.6622 21.2623 49.0053 21.9801 48.1712 22.5665C47.3579 23.1327 46.4194 23.5573 45.3559 23.8404C44.3132 24.1235 43.2288 24.2651 42.1027 24.2651Z" fill="#ED5226"/>
<path d="M49.2658 23.9618C48.807 23.9618 48.4212 23.8101 48.1084 23.5068C47.7956 23.2035 47.6392 22.8294 47.6392 22.3845V1.85021C47.6392 1.38513 47.7956 1.01104 48.1084 0.727952C48.4212 0.424639 48.807 0.272982 49.2658 0.272982H63.4047C63.8843 0.272982 64.2701 0.414528 64.5621 0.697621C64.854 0.960493 65 1.31436 65 1.75922C65 2.18386 64.854 2.52761 64.5621 2.79048C64.2701 3.05335 63.8843 3.18479 63.4047 3.18479H50.8924V10.5553H59.0796C59.5593 10.5553 59.9451 10.6969 60.237 10.9799C60.529 11.2428 60.675 11.5866 60.675 12.0112C60.675 12.4358 60.529 12.7897 60.237 13.0728C59.9451 13.3357 59.5593 13.4671 59.0796 13.4671H50.8924V21.0499H63.4047C63.8843 21.0499 64.2701 21.1814 64.5621 21.4443C64.854 21.7071 65 22.0509 65 22.4755C65 22.9204 64.854 23.2844 64.5621 23.5675C64.2701 23.8303 63.8843 23.9618 63.4047 23.9618H49.2658Z" fill="#ED5226"/>
<path d="M63.4472 23.9657C62.9816 23.9657 62.59 23.8141 62.2726 23.511C61.9763 23.2079 61.8281 22.834 61.8281 22.3894V1.86753C61.8281 1.40274 61.9763 1.02888 62.2726 0.745954C62.59 0.442825 62.9816 0.29126 63.4472 0.29126C63.9551 0.29126 64.3784 0.483242 64.717 0.867206L78.5583 18.4487V1.86753C78.5583 1.40274 78.717 1.02888 79.0345 0.745954C79.3519 0.442825 79.7435 0.29126 80.2091 0.29126C80.6959 0.29126 81.0874 0.442825 81.3837 0.745954C81.68 1.02888 81.8281 1.40274 81.8281 1.86753V22.3894C81.8281 22.834 81.68 23.2079 81.3837 23.511C81.0874 23.8141 80.6959 23.9657 80.2091 23.9657C79.9974 23.9657 79.7646 23.9253 79.5107 23.8444C79.2779 23.7434 79.0874 23.6019 78.9392 23.4201L65.098 5.83854V22.3894C65.098 22.834 64.9392 23.2079 64.6218 23.511C64.3255 23.8141 63.9339 23.9657 63.4472 23.9657Z" fill="#ED5226"/>
<g filter="url(#filter0_d_461_1648)">
<path d="M11.7209 5.19627C12.0366 5.02617 12.3721 4.96663 12.7273 5.01766C13.0825 5.0857 13.3883 5.23029 13.6448 5.45142C13.8816 5.68956 14 5.97874 14 6.31894C14 6.79522 13.7533 7.16945 13.26 7.44161L3.28541 12.5957L3.28541 11.4985L13.26 16.6016C13.7533 16.8567 14 17.2395 14 17.7498C14 18.243 13.7533 18.6003 13.26 18.8214C12.7667 19.0595 12.2537 19.0595 11.7209 18.8214L0.799157 13.157C0.266386 12.8338 3.81151e-07 12.4511 3.42487e-07 12.0088C2.99362e-07 11.5155 0.266386 11.1243 0.799156 10.8351L11.7209 5.19627Z" fill="#0A0904"/>
</g>
<g filter="url(#filter1_d_461_1648)">
<path d="M19.3866 24C18.8775 24 18.4866 23.7848 18.2138 23.3544C17.9593 22.9427 17.932 22.4842 18.132 21.979L26.3413 0.842104C26.4504 0.580116 26.6232 0.374268 26.8595 0.22456C27.0959 0.0748534 27.3505 0 27.6232 0C28.0959 0 28.4687 0.205848 28.7414 0.617543C29.0323 1.01053 29.0778 1.47836 28.8778 2.02105L20.6684 23.1579C20.5593 23.4573 20.3775 23.6725 20.123 23.8035C19.8866 23.9345 19.6411 24 19.3866 24Z" fill="#0A0904"/>
</g>
<defs>
<filter id="filter0_d_461_1648" x="0" y="5" width="16" height="14" filterUnits="userSpaceOnUse" color-interpolation-filters="sRGB">
<feFlood flood-opacity="0" result="BackgroundImageFix"/>
<feColorMatrix in="SourceAlpha" type="matrix" values="0 0 0 0 0 0 0 0 0 0 0 0 0 0 0 0 0 0 127 0" result="hardAlpha"/>
<feOffset dx="2"/>
<feComposite in2="hardAlpha" operator="out"/>
<feColorMatrix type="matrix" values="0 0 0 0 1 0 0 0 0 0.768627 0 0 0 0 0.156863 0 0 0 1 0"/>
<feBlend mode="normal" in2="BackgroundImageFix" result="effect1_dropShadow_461_1648"/>
<feBlend mode="normal" in="SourceGraphic" in2="effect1_dropShadow_461_1648" result="shape"/>
</filter>
<filter id="filter1_d_461_1648" x="18" y="0" width="13" height="24" filterUnits="userSpaceOnUse" color-interpolation-filters="sRGB">
<feFlood flood-opacity="0" result="BackgroundImageFix"/>
<feColorMatrix in="SourceAlpha" type="matrix" values="0 0 0 0 0 0 0 0 0 0 0 0 0 0 0 0 0 0 127 0" result="hardAlpha"/>
<feOffset dx="2"/>
<feComposite in2="hardAlpha" operator="out"/>
<feColorMatrix type="matrix" values="0 0 0 0 1 0 0 0 0 0.768627 0 0 0 0 0.156863 0 0 0 1 0"/>
<feBlend mode="normal" in2="BackgroundImageFix" result="effect1_dropShadow_461_1648"/>
<feBlend mode="normal" in="SourceGraphic" in2="effect1_dropShadow_461_1648" result="shape"/>
</filter>
</defs>
</svg>
