<svg width="240" height="241" viewBox="0 0 240 241" fill="none" xmlns="http://www.w3.org/2000/svg">
<path d="M80 100.787L60 120.787L80 140.787M160 100.787L180 120.787L160 140.787M130 97.4885L110 144.089" stroke="#FFC428" stroke-width="14" stroke-miterlimit="10" stroke-linecap="round" stroke-linejoin="round"/>
<path d="M180 174.489V204.489C180 217.743 169.255 228.489 156 228.489H84C70.7452 228.489 60 217.743 60 204.489V174.489M180 66.4885V36.4885C180 23.2337 169.255 12.4885 156 12.4885H84C70.7452 12.4885 60 23.2337 60 36.4885V66.4885M103 202.489H137M144 12.4885V30.4885C144 33.8022 141.314 36.4885 138 36.4885H102C98.6863 36.4885 96 33.8022 96 30.4885V12.4885" stroke="#ED5226" stroke-width="14" stroke-linecap="round"/>
</svg>
