<svg width="140" height="279" viewBox="0 0 140 279" fill="none" xmlns="http://www.w3.org/2000/svg">
<circle cx="57.6673" cy="25.0001" r="3.33333" fill="white" stroke="#FFC428" stroke-width="2"/>
<circle cx="18.3333" cy="25.0001" r="3.33333" fill="white" stroke="#ED5226" stroke-width="2"/>
<circle cx="69.6673" cy="25.0001" r="3.33333" fill="white" stroke="#FFC428" stroke-width="2"/>
<circle cx="82.3333" cy="25.0001" r="3.33333" fill="white" stroke="#FFC428" stroke-width="2"/>
<circle cx="121.666" cy="25.0001" r="3.33333" fill="white" stroke="#ED5226" stroke-width="2"/>
<circle cx="121.666" cy="97.6666" r="3.33333" fill="white" stroke="#2C4741" stroke-width="2"/>
<path d="M14 250.667C14 245.144 18.4772 240.667 24 240.667C29.5228 240.667 34 245.144 34 250.667C34 256.19 29.5228 260.667 24 260.667C18.4772 260.667 14 256.19 14 250.667Z" fill="#ED5226"/>
<path d="M44.666 250.667C44.666 245.144 49.1432 240.667 54.666 240.667C60.1889 240.667 64.666 245.144 64.666 250.667C64.666 256.19 60.1889 260.667 54.666 260.667C49.1432 260.667 44.666 256.19 44.666 250.667Z" fill="#ED5226"/>
<path d="M75.334 250.667C75.334 245.144 79.8111 240.667 85.334 240.667C90.8568 240.667 95.334 245.144 95.334 250.667C95.334 256.19 90.8568 260.667 85.334 260.667C79.8111 260.667 75.334 256.19 75.334 250.667Z" fill="#ED5226"/>
<path d="M106 250.667C106 245.144 110.477 240.667 116 240.667C121.523 240.667 126 245.144 126 250.667C126 256.19 121.523 260.667 116 260.667C110.477 260.667 106 256.19 106 250.667Z" fill="#ED5226"/>
<line x1="16" y1="98" x2="68.7568" y2="98" stroke="#2C4741" stroke-width="4" stroke-linecap="round"/>
<line x1="15" y1="225.667" x2="63.6667" y2="225.667" stroke="#2C4741" stroke-width="2" stroke-linecap="round"/>
<line x1="15" y1="231.667" x2="63.6667" y2="231.667" stroke="#2C4741" stroke-width="2" stroke-linecap="round"/>
<line x1="76.334" y1="225.667" x2="125.001" y2="225.667" stroke="#2C4741" stroke-width="2" stroke-linecap="round"/>
<rect x="14" y="180" width="50.6667" height="37.3333" rx="12" fill="#9837F9"/>
<rect x="75.334" y="180" width="50.6667" height="37.3333" rx="12" fill="#9837F9"/>
<rect x="14" y="108.667" width="112" height="61.3333" rx="12" fill="#9837F9"/>
<rect x="1" y="1" width="138" height="276.667" rx="27" stroke="#828282" stroke-width="2"/>
<path d="M38 1.33325V1.33325C38 7.96067 43.3726 13.3333 50 13.3333H90C96.6274 13.3333 102 7.96067 102 1.33325V1.33325" stroke="#828282" stroke-width="2" stroke-linecap="round" stroke-linejoin="round"/>
<path fill-rule="evenodd" clip-rule="evenodd" d="M70 66.55C73.3518 66.55 76.069 63.8413 76.069 60.5C76.069 57.1587 73.3518 54.45 70 54.45C66.6482 54.45 63.931 57.1587 63.931 60.5C63.931 63.8413 66.6482 66.55 70 66.55ZM70 68.2C74.2659 68.2 77.7241 64.7526 77.7241 60.5C77.7241 56.2474 74.2659 52.8 70 52.8C65.7341 52.8 62.2759 56.2474 62.2759 60.5C62.2759 64.7526 65.7341 68.2 70 68.2Z" fill="#ED5226"/>
<path fill-rule="evenodd" clip-rule="evenodd" d="M78.7361 72.9707C79.4449 73.423 80.3813 73.2732 80.9125 72.6223L81.5644 71.8235L82.3358 70.6418C82.6447 70.1688 82.6895 69.5713 82.4548 69.0577L80.672 65.1566C80.6337 65.0728 80.6139 64.9817 80.6139 64.8896C80.6139 64.592 80.8184 64.3332 81.1085 64.2635L84.7327 63.3927C85.4761 63.2141 86 62.551 86 61.7887V59.1379C86 58.41 85.5215 57.768 84.8223 57.5581L81.088 56.4365C80.8065 56.352 80.6139 56.0936 80.6139 55.8005C80.6139 55.6995 80.637 55.5999 80.6814 55.5092L82.5926 51.606C82.9206 50.936 82.7572 50.1299 82.1939 49.6395L81.2673 48.8327L80.34 48.0616C79.7563 47.5761 78.9159 47.5494 78.3023 47.9969L74.9886 50.4139C74.9381 50.4507 74.8772 50.4706 74.8147 50.4706C74.6839 50.4706 74.5688 50.3846 74.5321 50.2595L73.0416 45.1862C72.835 44.4831 72.1881 44 71.4531 44H68.6067C67.8438 44 67.1796 44.5199 66.9987 45.2588L65.7775 50.2471C65.7454 50.3783 65.6274 50.4706 65.492 50.4706C65.4358 50.4706 65.3808 50.4545 65.3335 50.4244L61.3581 47.8872C60.75 47.4991 59.9597 47.5487 59.4053 48.0098L58.4159 48.8327L57.6864 49.5965C57.1892 50.117 57.0872 50.8985 57.4342 51.5285L59.6238 55.5033C59.6757 55.5976 59.703 55.7035 59.703 55.8111C59.703 56.0969 59.5127 56.3481 59.237 56.4263L55.2022 57.5708C54.4908 57.7726 54 58.4204 54 59.1578V61.9081C54 62.6139 54.4503 63.2415 55.1203 63.4696L59.2688 64.8816C59.5285 64.97 59.703 65.2132 59.703 65.4867C59.703 65.6106 59.6669 65.7317 59.5991 65.8355L57.3184 69.3289C56.8688 70.0176 56.9961 70.9311 57.6169 71.4717L58.4159 72.1673L59.4502 73.0275C59.9828 73.4704 60.7359 73.5354 61.3369 73.1902L65.3355 70.8934C65.3817 70.8669 65.434 70.8529 65.4872 70.8529C65.6258 70.8529 65.7469 70.9465 65.7814 71.0804L66.9875 75.7606C67.1755 76.49 67.8351 77 68.5906 77H71.4531C72.1881 77 72.835 76.5169 73.0416 75.8138L74.53 70.7474C74.568 70.6182 74.6868 70.5294 74.8219 70.5294C74.88 70.5294 74.9369 70.546 74.9859 70.5773L78.7361 72.9707ZM59.5491 50.0391L58.8851 50.7343L61.0746 54.7091C61.2606 55.0468 61.3581 55.4258 61.3581 55.8111C61.3581 56.8343 60.6771 57.7333 59.6899 58.0133L55.6552 59.1578L55.6552 61.9081L59.8037 63.3202C60.7333 63.6366 61.3581 64.5074 61.3581 65.4867C61.3581 65.9301 61.229 66.3639 60.9864 66.7355L58.7057 70.2289L59.4906 70.9123L60.5105 71.7605L64.5092 69.4637C64.8066 69.2929 65.1439 69.2029 65.4872 69.2029C66.3813 69.2029 67.162 69.8065 67.3845 70.6698L68.5906 75.35L71.4531 75.35L72.9416 70.2836C73.1861 69.4513 73.9519 68.8794 74.8219 68.8794C75.1963 68.8794 75.5629 68.9864 75.8783 69.1876L79.6285 71.5811L80.225 70.8502L80.9486 69.7418L79.1658 65.8407C79.0293 65.5421 78.9587 65.2178 78.9587 64.8896C78.9587 63.8297 79.6871 62.9078 80.7207 62.6594L84.3448 61.7887L84.3448 59.1379L80.6105 58.0164C79.6299 57.7218 78.9587 56.8215 78.9587 55.8005C78.9587 55.4487 79.0391 55.1015 79.194 54.7854L81.1051 50.8822L80.1926 50.0878L79.2797 49.3285L75.9659 51.7456C75.6318 51.9892 75.2286 52.1206 74.8147 52.1206C73.949 52.1206 73.1869 51.5515 72.9436 50.7233L71.4531 45.65H68.6067L67.3855 50.6383C67.1725 51.5084 66.3904 52.1206 65.492 52.1206C65.1195 52.1206 64.7548 52.0142 64.4411 51.814L60.4656 49.2768L59.5491 50.0391Z" fill="#ED5226"/>
</svg>
