<svg width="240" height="241" viewBox="0 0 240 241" fill="none" xmlns="http://www.w3.org/2000/svg">
<path d="M186.7 187.189L208.9 176.089V148.289M142.2 98.2885L120 109.389M120 109.389L97.8 98.2885M120 109.389V137.189M208.9 64.8885L186.7 75.9885M208.9 64.8885L186.7 53.7885M208.9 64.8885V92.6885M31.1001 64.8885L53.3001 53.7885M31.1001 64.8885L53.3001 75.9885M31.1001 64.8885V92.6885M120 220.489L97.8 209.389M120 220.489L142.2 209.389M120 220.489V192.689M142.2 31.5885L120 20.4885L97.8 31.5885H142.2ZM53.3001 187.189L31.1001 176.089V148.289L53.3001 187.189Z" stroke="#ED5226" stroke-width="14" stroke-linecap="round" stroke-linejoin="round"/>
</svg>
