<svg width="546" height="565" viewBox="0 0 546 565" fill="none" xmlns="http://www.w3.org/2000/svg">
<path d="M84.2946 527.125C83.5431 530.321 81.3696 533.022 78.3746 534.483L22.1548 561.91C13.5795 566.093 4.02212 558.435 6.49853 549.364L19.6425 501.22C20.9001 496.613 25.0544 493.326 29.9049 493.1L78.385 490.838C85.7285 490.496 91.3533 497.112 89.6989 504.146L84.2946 527.125Z" fill="#9837F9" fill-opacity="0.1"/>
<path d="M183.064 204.383C184.691 198.209 188.533 192.85 193.856 189.326L422.248 38.1203C442.252 24.8762 467.983 43.48 461.677 66.6288L394.361 313.757C391.702 323.518 383.624 330.852 373.653 332.558L178.478 365.95C159.835 369.14 144.14 351.988 148.963 333.697L183.064 204.383Z" fill="#9837F9" fill-opacity="0.1"/>
</svg>
