<svg width="190" height="191" viewBox="0 0 190 191" fill="none" xmlns="http://www.w3.org/2000/svg">
<path fill-rule="evenodd" clip-rule="evenodd" d="M58.1978 60.5441C58.1978 52.72 64.5445 46.3774 72.3736 46.3774H105.298C109.19 46.3774 112.912 47.977 115.589 50.801L125.89 61.6677C127.496 63.3621 129.729 64.3219 132.065 64.3219H167.824C175.653 64.3219 182 70.6645 182 78.4885V129.489C182 137.313 175.653 143.655 167.824 143.655H72.3736C64.5445 143.655 58.1978 137.313 58.1978 129.489V60.5441ZM72.3736 52.0441C67.6762 52.0441 63.8681 55.8497 63.8681 60.5441V129.489C63.8681 134.183 67.6762 137.989 72.3736 137.989H167.824C172.522 137.989 176.33 134.183 176.33 129.489V78.4885C176.33 73.7941 172.522 69.9885 167.824 69.9885H132.065C128.172 69.9885 124.451 68.3889 121.774 65.5649L111.472 54.6983C109.866 53.0039 107.633 52.0441 105.298 52.0441H72.3736Z" fill="#FFC428"/>
<path fill-rule="evenodd" clip-rule="evenodd" d="M149.038 81.2073L167.081 99.2385C168.188 100.345 168.188 102.139 167.081 103.245L149.038 121.277C147.931 122.383 146.135 122.383 145.028 121.277C143.921 120.17 143.921 118.376 145.028 117.27L161.066 101.242L145.028 85.2142C143.921 84.1077 143.921 82.3138 145.028 81.2073C146.135 80.1008 147.931 80.1008 149.038 81.2073Z" fill="#FFC428"/>
<path fill-rule="evenodd" clip-rule="evenodd" d="M91.2487 81.2073L73.2058 99.2385C72.0986 100.345 72.0986 102.139 73.2058 103.245L91.2487 121.277C92.3559 122.383 94.151 122.383 95.2582 121.277C96.3654 120.17 96.3654 118.376 95.2582 117.27L79.2201 101.242L95.2582 85.2142C96.3654 84.1077 96.3654 82.3138 95.2582 81.2073C94.151 80.1008 92.3559 80.1008 91.2487 81.2073Z" fill="#FFC428"/>
<path fill-rule="evenodd" clip-rule="evenodd" d="M131.648 75.9039C133.069 76.5629 133.685 78.2476 133.026 79.6669L110.842 127.416C110.183 128.835 108.497 129.452 107.077 128.793C105.657 128.134 105.04 126.449 105.699 125.03L127.883 77.2806C128.542 75.8613 130.228 75.2449 131.648 75.9039Z" fill="#FFC428"/>
<path fill-rule="evenodd" clip-rule="evenodd" d="M69.0687 50.1552L68.6054 48.5681C67.8996 46.1505 65.682 44.4885 63.162 44.4885H55.3282C52.7126 44.4885 50.4363 46.2765 49.8184 48.8165L46.173 63.8006C46.0748 64.2043 45.713 64.4885 45.2972 64.4885C45.1244 64.4885 44.9552 64.4389 44.8099 64.3455L32.9713 56.742C30.884 55.4015 28.1671 55.5727 26.2649 57.1647L23.563 59.4261L21.6019 61.4923C19.9072 63.2779 19.5595 65.9524 20.7413 68.1115L27.2732 80.0444C27.4327 80.3358 27.5163 80.6626 27.5163 80.9947C27.5163 81.8789 26.9297 82.656 26.079 82.8988L14.113 86.3145C11.6785 87.0094 10 89.233 10 91.7632V99.4405C10 101.862 11.5396 104.016 13.8318 104.801L26.1775 109.03C26.9783 109.304 27.5163 110.057 27.5163 110.903C27.5163 111.285 27.4055 111.659 27.1975 111.98L20.453 122.376C18.9211 124.737 19.3553 127.864 21.4728 129.72L23.563 131.551L26.4191 133.941C28.2464 135.471 30.8356 135.695 32.8988 134.502L44.8161 127.614C44.9579 127.532 45.1188 127.489 45.2825 127.489C45.708 127.489 46.0794 127.777 46.1849 128.189L49.7799 142.227C50.4221 144.734 52.683 146.489 55.2732 146.489H63.162C65.682 146.489 67.8996 144.827 68.6054 142.409L69.0687 140.822H68.5934C66.7219 140.822 65.0093 140.142 63.689 139.017L63.162 140.822H55.2732L51.6782 126.784C50.9306 123.864 48.2982 121.822 45.2825 121.822C44.1219 121.822 42.9818 122.128 41.9771 122.708L30.0598 129.597L27.2529 127.248L25.2109 125.459L31.9553 115.063C32.759 113.824 33.1866 112.379 33.1866 110.903C33.1866 107.635 31.109 104.729 28.016 103.669L15.6703 99.4405L15.6703 91.7632L27.6364 88.3475C30.9216 87.4098 33.1866 84.4091 33.1866 80.9947C33.1866 79.7121 32.8638 78.4501 32.2478 77.3249L25.716 65.392L27.4531 63.5617L29.9056 61.5091L41.7442 69.1126C42.8041 69.7933 44.0374 70.1552 45.2972 70.1552C48.3286 70.1552 50.9667 68.083 51.6829 65.1393L55.3282 50.1552H63.162L63.689 51.9604C65.0093 50.8347 66.7219 50.1552 68.5934 50.1552H69.0687Z" fill="#FFC428"/>
<path fill-rule="evenodd" clip-rule="evenodd" d="M61.033 70.9523C60.7195 70.9394 60.4044 70.933 60.0879 70.933C47.0394 70.933 36.4615 81.9269 36.4615 95.4885C36.4615 109.05 47.0394 120.044 60.0879 120.044C60.4044 120.044 60.7195 120.038 61.033 120.025V114.351C60.7197 114.369 60.4046 114.377 60.0879 114.377C50.3786 114.377 42.1319 106.132 42.1319 95.4885C42.1319 84.845 50.3786 76.5996 60.0879 76.5996C60.4046 76.5996 60.7197 76.6084 61.033 76.6257V70.9523Z" fill="#FFC428"/>
</svg>
