<svg width="576" height="577" viewBox="0 0 576 577" fill="none" xmlns="http://www.w3.org/2000/svg">
<circle cx="288.057" cy="288.544" r="235.5" stroke="#ED5226" stroke-width="4" stroke-miterlimit="1" stroke-linecap="round" stroke-linejoin="round" stroke-dasharray="94 94"/>
<circle cx="287.782" cy="288.271" r="203.493" transform="rotate(135 287.782 288.271)" stroke="#ED5226" stroke-width="4" stroke-miterlimit="1" stroke-linecap="round" stroke-linejoin="round" stroke-dasharray="39 39"/>
<circle cx="287.557" cy="289.044" r="177" stroke="#ED5226" stroke-width="4" stroke-miterlimit="1" stroke-linecap="round" stroke-dasharray="75 75"/>
<path d="M238.6 241.935H336.45M360.912 267.565V290.975C360.912 295.169 357.51 298.569 353.312 298.569H333.6M288 298.893H238.579C235.431 298.894 232.88 301.444 232.88 304.589L232.9 306.486M204.4 267.565H227.2C233.496 267.565 238.6 262.465 238.6 256.174V233.391C238.6 227.1 233.496 222 227.2 222H204.4C198.104 222 193 227.1 193 233.391V256.174C193 262.465 198.104 267.565 204.4 267.565ZM348.8 267.565H371.6C377.896 267.565 383 262.465 383 256.174V233.391C383 227.1 377.896 222 371.6 222H348.8C342.504 222 337.4 227.1 337.4 233.391V256.174C337.4 262.465 342.504 267.565 348.8 267.565ZM299.4 320.725H322.2C328.496 320.725 333.6 315.625 333.6 309.333V297.942V286.551C333.6 280.259 328.496 275.159 322.2 275.159H299.4C293.104 275.159 288 280.259 288 286.551V309.333C288 315.625 293.104 320.725 299.4 320.725ZM221.5 353H244.3C250.596 353 255.7 347.9 255.7 341.609V318.826C255.7 312.535 250.596 307.435 244.3 307.435H221.5C215.204 307.435 210.1 312.535 210.1 318.826V341.609C210.1 347.9 215.204 353 221.5 353Z" stroke="#FFC428" stroke-width="6" stroke-linecap="round"/>
</svg>
