<svg width="240" height="241" viewBox="0 0 240 241" fill="none" xmlns="http://www.w3.org/2000/svg">
<path fill-rule="evenodd" clip-rule="evenodd" d="M130.301 38.3181C132.576 36.485 134.032 33.676 134.032 30.527C134.032 28.2313 133.258 26.1164 131.958 24.4285C174.256 30.1926 206.916 62.8876 206.916 101.895H192.916C192.916 71.2689 166.747 43.3142 130.301 38.3181ZM107.309 38.2659C70.6613 43.1163 44.3066 71.1605 44.3066 101.895H30.3066C30.3066 62.7328 63.2271 29.9331 105.769 24.3611C104.437 26.0599 103.643 28.2007 103.643 30.527C103.643 33.6463 105.071 36.432 107.309 38.2659Z" fill="#FFC428"/>
<path fill-rule="evenodd" clip-rule="evenodd" d="M128.464 37.7944C130.232 35.9907 131.322 33.5199 131.322 30.7944C131.322 28.069 130.232 25.5982 128.464 23.7944H128.731H129.067H129.402H129.738H130.075H130.412H130.749H131.087H131.425H131.764H132.103H132.442H132.782H133.122H133.462H133.803H134.144H134.485H134.827H135.169H135.512H135.855H136.198H136.542H136.886H137.23H137.575H137.92H138.265H138.611H138.957H139.303H139.65H139.997H140.344H140.692H141.04H141.388H141.736H142.085H142.434H142.784H143.134H143.484H143.834H144.185H144.535H144.887H145.238H145.59H145.942H146.294H146.647H146.999H147.352H147.706H148.059H148.413H148.767H149.121H149.476H149.831H150.186H150.541H150.897H151.252H151.608H151.965H152.321H152.678H153.035H153.392H153.749H154.106H154.464H154.822H155.18H155.539H155.897H156.256H156.615H156.974H157.333H157.692H158.052H158.412H158.772H159.132H159.492H159.853H160.213H160.574H160.935H161.296H161.657H162.019H162.38H162.742H163.104H163.466H163.828H164.19H164.552H164.915H165.278H165.64H166.003H166.366H166.729H167.092H167.456H167.819H168.182H168.546H168.91H169.273H169.637H170.001H170.365H170.729H171.094H171.458H171.822H172.187H172.551H172.916H173.28H173.645H174.009H174.374H174.739H175.104H175.469H175.834H176.199H176.564H176.929H177.294H177.659H178.024H178.389H178.754H179.12H179.485H179.85H180.215H180.581H180.946C184.812 23.7944 187.946 26.9284 187.946 30.7944C187.946 34.6604 184.812 37.7944 180.946 37.7944H180.581H180.215H179.85H179.485H179.12H178.754H178.389H178.024H177.659H177.294H176.929H176.564H176.199H175.834H175.469H175.104H174.739H174.374H174.009H173.645H173.28H172.916H172.551H172.187H171.822H171.458H171.094H170.729H170.365H170.001H169.637H169.273H168.91H168.546H168.182H167.819H167.456H167.092H166.729H166.366H166.003H165.64H165.278H164.915H164.552H164.19H163.828H163.466H163.104H162.742H162.38H162.019H161.657H161.296H160.935H160.574H160.213H159.853H159.492H159.132H158.772H158.412H158.052H157.692H157.333H156.974H156.615H156.256H155.897H155.539H155.18H154.822H154.464H154.106H153.749H153.392H153.035H152.678H152.321H151.965H151.608H151.252H150.897H150.541H150.186H149.831H149.476H149.121H148.767H148.413H148.059H147.706H147.352H146.999H146.647H146.294H145.942H145.59H145.238H144.887H144.535H144.185H143.834H143.484H143.134H142.784H142.434H142.085H141.736H141.388H141.04H140.692H140.344H139.997H139.65H139.303H138.957H138.611H138.265H137.92H137.575H137.23H136.886H136.542H136.198H135.855H135.512H135.169H134.827H134.485H134.144H133.803H133.462H133.122H132.782H132.442H132.103H131.764H131.425H131.087H130.749H130.412H130.075H129.738H129.402H129.067H128.731H128.464ZM108.76 37.7944H108.547H108.244H107.941H107.638H107.337H107.036H106.735H106.435H106.136H105.837H105.539H105.241H104.945H104.648H104.353H104.058H103.763H103.469H103.176H102.884H102.592H102.301H102.01H101.72H101.431H101.142H100.854H100.567H100.28H99.9945H99.7092H99.4245H99.1406H98.8573H98.5746H98.2927H98.0114H97.7308H97.451H97.1718H96.8932H96.6154H96.3383H96.0619H95.7862H95.5112H95.2369H94.9634H94.6905H94.4184H94.147H93.8763H93.6063H93.3371H93.0686H92.8008H92.5338H92.2675H92.002H91.7372H91.4731H91.2098H90.9473H90.6855H90.4245H90.1643H89.9048H89.6461H89.3881H89.1309H88.8745H88.6189H88.3641H88.1101H87.8568H87.6043H87.3527H87.1018H86.8517H86.6024H86.354H86.1063H85.8595H85.6134H85.3682H85.1238H84.8802H84.6375H84.3956H84.1545H83.9142H83.6748H83.4362H83.1985H82.9616H82.7255H82.4903H82.256H82.0225H81.7898H81.558H81.3271H81.0971H80.8679H80.6396H80.4122H80.1856H79.96H79.7352H79.5113H79.2883H79.0661H78.8449H78.6246H78.4052H78.1866H77.969H77.7523H77.5365H77.3216H77.1076H76.8946H76.6825H76.4713H76.261H76.0516H75.8432H75.6358H75.4292H75.2236H75.019H74.8153H74.6125H74.4107H74.2099H74.01H73.8111H73.6131H73.4161H73.2201H73.0251H72.831H72.6379H72.4458H72.2547H72.0645H71.8754H71.6872H71.5H71.3139H71.1287H70.9445H70.7614H70.5792H70.3981H70.2179H70.0388H69.8607H69.6837H69.5076H69.3326H69.1586H68.9857H68.8138H68.6429H68.4731H68.3043H68.1365H67.9699H67.8042H67.6396H67.4761H67.3137H67.1523H66.9919H66.8327H66.6745H66.5174H66.3614H66.2064H66.0526H65.8998H65.7481H65.5975H65.448H65.2996H65.1523H65.0061H64.861H64.717H64.5742H64.4324H64.2918H64.1522H64.0138H63.8766H63.7404H63.6054H63.4715H63.3388H63.2072H63.0767H62.9474H62.8193H62.6923H62.5664H62.4417H62.3182H62.1958H62.0746H61.9545H61.8356H61.7179H61.6014H61.486H61.3719H61.2589H61.1471H61.0365H60.9271H60.8188H60.7118H60.606H60.5014H60.398H60.2958H60.1948H60.095H59.9965H59.8991H59.803H59.7081H59.6145H59.522H59.4308H59.3409H59.2522H59.1647H59.0785H58.9935H58.9098H58.8273H58.7461H58.6661H58.5874H58.51H58.4338H58.3589H58.2853H58.213H58.1419H58.0721H58.0037H57.9364H57.8705H57.8059H57.7426H57.6805H57.6198H57.5604H57.5023H57.4455H57.39H57.3358H57.2829H57.2314H57.1812H57.1323H57.0847H57.0385H56.9936H56.95H56.9078H56.8669H56.8274H56.7892H56.7524H56.7169H56.6828H56.65H56.6186H56.5886H56.5599H56.5327H56.5067H56.4822H56.459H56.4373H56.4169H56.3979H56.3802H56.364H56.3492H56.3358H56.3237H56.3131H56.3039H56.2961H56.2897H56.2847H56.2812H56.279C56.2786 37.7944 56.2783 37.7944 56.2783 30.7944C56.2783 23.7944 56.2786 23.7944 56.279 23.7944H56.2812H56.2847H56.2897H56.2961H56.3039H56.3131H56.3237H56.3358H56.3492H56.364H56.3802H56.3979H56.4169H56.4373H56.459H56.4822H56.5067H56.5327H56.5599H56.5886H56.6186H56.65H56.6828H56.7169H56.7524H56.7892H56.8274H56.8669H56.9078H56.95H56.9936H57.0385H57.0847H57.1323H57.1812H57.2314H57.2829H57.3358H57.39H57.4455H57.5023H57.5604H57.6198H57.6805H57.7426H57.8059H57.8705H57.9364H58.0037H58.0721H58.1419H58.213H58.2853H58.3589H58.4338H58.51H58.5874H58.6661H58.7461H58.8273H58.9098H58.9935H59.0785H59.1647H59.2522H59.3409H59.4308H59.522H59.6145H59.7081H59.803H59.8991H59.9965H60.095H60.1948H60.2958H60.398H60.5014H60.606H60.7118H60.8188H60.9271H61.0365H61.1471H61.2589H61.3719H61.486H61.6014H61.7179H61.8356H61.9545H62.0746H62.1958H62.3182H62.4417H62.5664H62.6923H62.8193H62.9474H63.0767H63.2072H63.3388H63.4715H63.6054H63.7404H63.8766H64.0138H64.1522H64.2918H64.4324H64.5742H64.717H64.861H65.0061H65.1523H65.2996H65.448H65.5975H65.7481H65.8998H66.0526H66.2064H66.3614H66.5174H66.6745H66.8327H66.9919H67.1523H67.3137H67.4761H67.6396H67.8042H67.9699H68.1365H68.3043H68.4731H68.6429H68.8138H68.9857H69.1586H69.3326H69.5076H69.6837H69.8607H70.0388H70.2179H70.3981H70.5792H70.7614H70.9445H71.1287H71.3139H71.5H71.6872H71.8754H72.0645H72.2547H72.4458H72.6379H72.831H73.0251H73.2201H73.4161H73.6131H73.8111H74.01H74.2099H74.4107H74.6125H74.8153H75.019H75.2236H75.4292H75.6358H75.8432H76.0516H76.261H76.4713H76.6825H76.8946H77.1076H77.3216H77.5365H77.7523H77.969H78.1866H78.4052H78.6246H78.8449H79.0661H79.2883H79.5113H79.7352H79.96H80.1856H80.4122H80.6396H80.8679H81.0971H81.3271H81.558H81.7898H82.0225H82.256H82.4903H82.7255H82.9616H83.1985H83.4362H83.6748H83.9142H84.1545H84.3956H84.6375H84.8802H85.1238H85.3682H85.6134H85.8595H86.1063H86.354H86.6024H86.8517H87.1018H87.3527H87.6043H87.8568H88.1101H88.3641H88.6189H88.8745H89.1309H89.3881H89.6461H89.9048H90.1643H90.4245H90.6855H90.9473H91.2098H91.4731H91.7372H92.002H92.2675H92.5338H92.8008H93.0686H93.3371H93.6063H93.8763H94.147H94.4184H94.6905H94.9634H95.2369H95.5112H95.7862H96.0619H96.3383H96.6154H96.8932H97.1718H97.451H97.7308H98.0114H98.2927H98.5746H98.8573H99.1406H99.4245H99.7092H99.9945H100.28H100.567H100.854H101.142H101.431H101.72H102.01H102.301H102.592H102.884H103.176H103.469H103.763H104.058H104.353H104.648H104.945H105.241H105.539H105.837H106.136H106.435H106.735H107.036H107.337H107.638H107.941H108.244H108.547H108.76C106.992 25.5982 105.902 28.069 105.902 30.7944C105.902 33.5199 106.992 35.9907 108.76 37.7944ZM56.2783 23.7944C52.4123 23.7944 49.2783 26.9284 49.2783 30.7944C49.2783 34.6604 52.4123 37.7944 56.2783 37.7944V30.7944V23.7944Z" fill="#FFC428"/>
<path d="M119.356 83.6307V145.631M118.32 78.8209L52.9978 173.329C52.5914 173.917 52.9152 174.73 53.6146 174.877L75.3961 179.457C75.5048 179.479 75.6122 179.511 75.7154 179.553C85.1339 183.305 91.0748 190.891 91.0748 199.186L91.0748 221.631C91.0748 222.183 91.5225 222.631 92.0748 222.631H146.21C146.762 222.631 147.21 222.183 147.21 221.631L147.21 199.186C147.21 190.891 153.151 183.305 162.569 179.553C162.673 179.511 162.78 179.479 162.889 179.457L184.67 174.877C185.37 174.73 185.693 173.917 185.287 173.329L119.965 78.8209C119.567 78.2456 118.717 78.2456 118.32 78.8209ZM199.142 128.631H205.142C210.142 128.631 212.142 126.631 212.142 121.631V115.631C212.142 110.631 210.142 108.631 205.142 108.631H199.142C194.142 108.631 192.142 110.631 192.142 115.631V121.631C192.142 126.631 194.142 128.631 199.142 128.631ZM35.1424 128.631H41.1424C46.1424 128.631 48.1424 126.631 48.1424 121.631V115.631C48.1424 110.631 46.1424 108.631 41.1424 108.631H35.1424C30.1424 108.631 28.1424 110.631 28.1424 115.631V121.631C28.1424 126.631 30.1424 128.631 35.1424 128.631ZM116.142 41.6307H122.142C127.142 41.6307 129.142 39.6307 129.142 34.6307V28.6307C129.142 23.6307 127.142 21.6307 122.142 21.6307H116.142C111.142 21.6307 109.142 23.6307 109.142 28.6307V34.6307C109.142 39.6307 111.142 41.6307 116.142 41.6307ZM28.95 36.5804L33.1926 40.823C36.7282 44.3586 39.5566 44.3586 43.0921 40.823L47.3348 36.5804C50.8703 33.0449 50.8703 30.2164 47.3348 26.6809L43.0921 22.4383C39.5566 18.9027 36.7282 18.9027 33.1926 22.4383L28.95 26.6809C25.4145 30.2164 25.4145 33.0449 28.95 36.5804ZM192.95 36.5804L197.193 40.823C200.728 44.3586 203.557 44.3586 207.092 40.823L211.335 36.5804C214.87 33.0449 214.87 30.2164 211.335 26.6809L207.092 22.4383C203.557 18.9027 200.728 18.9027 197.193 22.4383L192.95 26.6809C189.414 30.2164 189.414 33.0449 192.95 36.5804ZM110.093 164.723L114.335 168.965C117.871 172.501 120.699 172.501 124.235 168.965L128.477 164.723C132.013 161.187 132.013 158.359 128.477 154.823L124.235 150.58C120.699 147.045 117.871 147.045 114.335 150.58L110.093 154.823C106.557 158.359 106.557 161.187 110.093 164.723Z" stroke="#ED5226" stroke-width="14" stroke-linecap="round" stroke-linejoin="round"/>
</svg>
